<svg width="32" height="32" viewBox="0 0 32 32" fill="none" xmlns="http://www.w3.org/2000/svg">
<path fill-rule="evenodd" clip-rule="evenodd" d="M16.0002 2C16.2654 2 16.5198 2.10536 16.7073 2.29289C16.8948 2.48043 17.0002 2.73478 17.0002 3V26.586L23.2922 20.292C23.48 20.1042 23.7347 19.9987 24.0002 19.9987C24.2658 19.9987 24.5204 20.1042 24.7082 20.292C24.896 20.4798 25.0015 20.7344 25.0015 21C25.0015 21.2656 24.896 21.5202 24.7082 21.708L16.7082 29.708C16.6153 29.8011 16.505 29.875 16.3835 29.9254C16.262 29.9758 16.1317 30.0018 16.0002 30.0018C15.8687 30.0018 15.7384 29.9758 15.6169 29.9254C15.4954 29.875 15.3851 29.8011 15.2922 29.708L7.2922 21.708C7.10443 21.5202 6.99894 21.2656 6.99894 21C6.99894 20.7344 7.10443 20.4798 7.2922 20.292C7.47997 20.1042 7.73465 19.9987 8.0002 19.9987C8.26575 19.9987 8.52043 20.1042 8.7082 20.292L15.0002 26.586V3C15.0002 2.73478 15.1056 2.48043 15.2931 2.29289C15.4806 2.10536 15.735 2 16.0002 2Z" fill="#F5F5F5"/>
</svg>
