<svg width="29" height="28" viewBox="0 0 29 28" fill="none" xmlns="http://www.w3.org/2000/svg">
<path d="M22.7997 6.57499C26.9002 10.6755 26.9002 17.3237 22.7997 21.4242M19.7064 9.66868C22.0984 12.0606 22.0984 15.9388 19.7064 18.3307M8.375 9.62467L13.8813 4.11839C14.4325 3.56717 15.375 3.95757 15.375 4.73711V23.2622C15.375 24.0418 14.4325 24.4322 13.8813 23.881L8.375 18.3747H5.76056C4.73466 18.3747 3.77356 17.7838 3.5011 16.7947C3.25595 15.9048 3.125 14.9675 3.125 13.9997C3.125 13.0318 3.25595 12.0945 3.5011 11.2046C3.77356 10.2156 4.73466 9.62467 5.76056 9.62467H8.375Z" stroke="#F5F5F5" stroke-width="2" stroke-linecap="round" stroke-linejoin="round"/>
</svg>
