<svg width="36" height="36" viewBox="0 0 36 36" fill="none" xmlns="http://www.w3.org/2000/svg">
<g clip-path="url(#clip0_325_49)">
<path d="M36 18C36 22.7739 34.1036 27.3523 30.7279 30.7279C27.3523 34.1036 22.7739 36 18 36C13.2261 36 8.64773 34.1036 5.27208 30.7279C1.89642 27.3523 0 22.7739 0 18C0 13.2261 1.89642 8.64773 5.27208 5.27208C8.64773 1.89642 13.2261 0 18 0C22.7739 0 27.3523 1.89642 30.7279 5.27208C34.1036 8.64773 36 13.2261 36 18ZM27.0675 11.1825C26.9068 11.0223 26.7154 10.8962 26.5048 10.8117C26.2943 10.7272 26.0688 10.6861 25.842 10.6907C25.6151 10.6953 25.3915 10.7456 25.1846 10.8386C24.9776 10.9316 24.7916 11.0654 24.6375 11.232L16.8232 21.1882L12.114 16.4767C11.7941 16.1787 11.371 16.0164 10.9338 16.0241C10.4966 16.0318 10.0795 16.2089 9.77035 16.5181C9.46117 16.8273 9.28407 17.2444 9.27636 17.6816C9.26864 18.1188 9.43092 18.5419 9.729 18.8618L15.6825 24.8175C15.8429 24.9776 16.0339 25.1037 16.2441 25.1884C16.4543 25.2731 16.6794 25.3146 16.9059 25.3104C17.1325 25.3062 17.3559 25.2564 17.5628 25.164C17.7697 25.0716 17.9559 24.9384 18.1102 24.7725L27.0923 13.545C27.3985 13.2266 27.5676 12.8009 27.5634 12.3592C27.5592 11.9174 27.382 11.495 27.0697 11.1825H27.0675Z" fill="#EB004B"/>
</g>
<defs>
<clipPath id="clip0_325_49">
<rect width="36" height="36" fill="white"/>
</clipPath>
</defs>
</svg>
