<svg width="36" height="36" viewBox="0 0 36 36" fill="none" xmlns="http://www.w3.org/2000/svg">
<g clip-path="url(#clip0_325_509)">
<path d="M36 18C36 22.7739 34.1036 27.3523 30.7279 30.7279C27.3523 34.1036 22.7739 36 18 36C13.2261 36 8.64773 34.1036 5.27208 30.7279C1.89642 27.3523 0 22.7739 0 18C0 13.2261 1.89642 8.64773 5.27208 5.27208C8.64773 1.89642 13.2261 0 18 0C22.7739 0 27.3523 1.89642 30.7279 5.27208C34.1036 8.64773 36 13.2261 36 18ZM18 7.875C18 7.57663 17.8815 7.29048 17.6705 7.0795C17.4595 6.86853 17.1734 6.75 16.875 6.75C16.5766 6.75 16.2905 6.86853 16.0795 7.0795C15.8685 7.29048 15.75 7.57663 15.75 7.875V20.25C15.7501 20.4483 15.8025 20.6431 15.9021 20.8145C16.0017 20.986 16.1448 21.1281 16.317 21.2265L24.192 25.7265C24.4504 25.8662 24.7532 25.8992 25.0357 25.8186C25.3182 25.7379 25.5579 25.55 25.7037 25.2949C25.8494 25.0399 25.8896 24.7379 25.8157 24.4536C25.7417 24.1693 25.5595 23.9252 25.308 23.7735L18 19.5975V7.875Z" fill="#EB004B"/>
</g>
<defs>
<clipPath id="clip0_325_509">
<rect width="36" height="36" fill="white"/>
</clipPath>
</defs>
</svg>
