<svg width="29" height="28" viewBox="0 0 29 28" fill="none" xmlns="http://www.w3.org/2000/svg">
<path d="M8.238 11.958C9.17874 11.958 10.0276 11.4379 10.6081 10.6976C11.5101 9.54749 12.647 8.5903 13.9465 7.89826C14.789 7.44958 15.52 6.783 15.8745 5.89675C16.1226 5.27662 16.25 4.61485 16.25 3.94695V3.20801C16.25 2.72476 16.6418 2.33301 17.125 2.33301C18.5747 2.33301 19.75 3.50826 19.75 4.95801C19.75 6.30158 19.4472 7.57441 18.9061 8.712C18.5962 9.36339 19.0309 10.208 19.7522 10.208M19.7522 10.208H23.399C24.5968 10.208 25.6689 11.0177 25.7957 12.2087C25.8481 12.7013 25.875 13.2015 25.875 13.708C25.875 17.0302 24.7178 20.0822 22.7845 22.4828C22.3323 23.0443 21.6332 23.333 20.9123 23.333H16.227C15.6627 23.333 15.1021 23.242 14.5668 23.0636L10.9332 21.8524C10.3979 21.674 9.83732 21.583 9.27304 21.583H7.38824M19.7522 10.208H17.125M7.38824 21.583C7.48485 21.8217 7.58999 22.056 7.70327 22.2856C7.93326 22.7517 7.61223 23.333 7.09245 23.333H6.03337C4.99654 23.333 4.0349 22.7287 3.73232 21.737C3.33743 20.4427 3.125 19.0689 3.125 17.6455C3.125 15.8343 3.46894 14.1034 4.09507 12.5146C4.45097 11.6115 5.36189 11.083 6.33258 11.083H7.5608C8.11138 11.083 8.43019 11.7316 8.14435 12.2021C7.1802 13.7894 6.625 15.6526 6.625 17.6455C6.625 19.0379 6.89604 20.3671 7.38824 21.583Z" stroke="#F5F5F5" stroke-width="2" stroke-linecap="round" stroke-linejoin="round"/>
</svg>
