<svg width="24" height="25" viewBox="0 0 24 25" fill="none" xmlns="http://www.w3.org/2000/svg">
<path d="M24 12.5C24 12.5 19.5 4.25 12 4.25C4.5 4.25 0 12.5 0 12.5C0 12.5 4.5 20.75 12 20.75C19.5 20.75 24 12.5 24 12.5ZM1.7595 12.5C2.48367 11.3969 3.31795 10.3701 4.2495 9.4355C6.18 7.502 8.82 5.75 12 5.75C15.18 5.75 17.8185 7.502 19.752 9.4355C20.6836 10.3701 21.5178 11.3969 22.242 12.5C22.156 12.63 22.0585 12.774 21.9495 12.932C21.447 13.652 20.7045 14.612 19.752 15.5645C17.8185 17.498 15.1785 19.25 12 19.25C8.8215 19.25 6.1815 17.498 4.248 15.5645C3.31645 14.6299 2.48367 13.6031 1.7595 12.5Z" fill="#CCCCCC"/>
<path d="M12 8.75C11.0054 8.75 10.0516 9.14509 9.34835 9.84835C8.64509 10.5516 8.25 11.5054 8.25 12.5C8.25 13.4946 8.64509 14.4484 9.34835 15.1517C10.0516 15.8549 11.0054 16.25 12 16.25C12.9946 16.25 13.9484 15.8549 14.6517 15.1517C15.3549 14.4484 15.75 13.4946 15.75 12.5C15.75 11.5054 15.3549 10.5516 14.6517 9.84835C13.9484 9.14509 12.9946 8.75 12 8.75ZM6.75 12.5C6.75 11.1076 7.30312 9.77226 8.28769 8.78769C9.27226 7.80312 10.6076 7.25 12 7.25C13.3924 7.25 14.7277 7.80312 15.7123 8.78769C16.6969 9.77226 17.25 11.1076 17.25 12.5C17.25 13.8924 16.6969 15.2277 15.7123 16.2123C14.7277 17.1969 13.3924 17.75 12 17.75C10.6076 17.75 9.27226 17.1969 8.28769 16.2123C7.30312 15.2277 6.75 13.8924 6.75 12.5Z" fill="#CCCCCC"/>
</svg>
