<svg width="36" height="36" viewBox="0 0 36 36" fill="none" xmlns="http://www.w3.org/2000/svg">
<path d="M23.625 18C23.625 19.4918 23.0324 20.9226 21.9775 21.9775C20.9226 23.0324 19.4918 23.625 18 23.625C16.5082 23.625 15.0774 23.0324 14.0225 21.9775C12.9676 20.9226 12.375 19.4918 12.375 18C12.375 16.5082 12.9676 15.0774 14.0225 14.0225C15.0774 12.9676 16.5082 12.375 18 12.375C19.4918 12.375 20.9226 12.9676 21.9775 14.0225C23.0324 15.0774 23.625 16.5082 23.625 18Z" fill="#EB004B"/>
<path d="M0 18C0 18 6.75 5.625 18 5.625C29.25 5.625 36 18 36 18C36 18 29.25 30.375 18 30.375C6.75 30.375 0 18 0 18ZM18 25.875C20.0886 25.875 22.0916 25.0453 23.5685 23.5685C25.0453 22.0916 25.875 20.0886 25.875 18C25.875 15.9114 25.0453 13.9084 23.5685 12.4315C22.0916 10.9547 20.0886 10.125 18 10.125C15.9114 10.125 13.9084 10.9547 12.4315 12.4315C10.9547 13.9084 10.125 15.9114 10.125 18C10.125 20.0886 10.9547 22.0916 12.4315 23.5685C13.9084 25.0453 15.9114 25.875 18 25.875Z" fill="#EB004B"/>
</svg>
