<svg width="36" height="36" viewBox="0 0 36 36" fill="none" xmlns="http://www.w3.org/2000/svg">
<path d="M24.2775 29.052L20.646 25.4182C19.2416 25.9203 17.7236 26.0133 16.2684 25.6864C14.8133 25.3594 13.4809 24.626 12.4263 23.5714C11.3718 22.5168 10.6383 21.1844 10.3114 19.7293C9.98442 18.2742 10.0774 16.7561 10.5795 15.3517L5.9445 10.7168C2.1105 14.1255 0 18 0 18C0 18 6.75 30.375 18 30.375C20.1611 30.3693 22.2979 29.919 24.2775 29.052ZM11.7225 6.948C13.7021 6.08099 15.8389 5.63065 18 5.625C29.25 5.625 36 18 36 18C36 18 33.8873 21.8722 30.0578 25.2855L25.4182 20.646C25.9203 19.2416 26.0133 17.7236 25.6864 16.2684C25.3594 14.8133 24.626 13.4809 23.5714 12.4263C22.5168 11.3718 21.1844 10.6383 19.7293 10.3114C18.2742 9.98442 16.7561 10.0774 15.3517 10.5795L11.7225 6.948Z" fill="#1C1C1C"/>
<path d="M12.4314 17.2035C12.3076 18.0682 12.3869 18.9498 12.663 19.7786C12.9391 20.6073 13.4045 21.3603 14.0221 21.978C14.6398 22.5956 15.3928 23.061 16.2216 23.3371C17.0503 23.6132 17.9319 23.6925 18.7966 23.5687L12.4314 17.2035ZM23.5689 18.7965L17.2036 12.429C18.0683 12.3052 18.95 12.3845 19.7787 12.6607C20.6074 12.9368 21.3604 13.4021 21.9781 14.0198C22.5958 14.6374 23.0611 15.3905 23.3372 16.2192C23.6133 17.0479 23.6926 17.9295 23.5689 18.7942V18.7965ZM30.7036 32.2965L3.70361 5.29649L5.29661 3.70349L32.2966 30.7035L30.7036 32.2965Z" fill="#1C1C1C"/>
</svg>
