<svg width="180" height="36" viewBox="0 0 180 36" fill="none" xmlns="http://www.w3.org/2000/svg">
<g clip-path="url(#clip0_323_2)">
<path d="M18.0029 2C18.0305 2 18.0571 2.00723 18.0791 2.02051C18.0984 2.03217 18.1265 2.05619 18.1533 2.10938V2.1084L23.0674 11.8447L23.3027 12.3105L23.8193 12.3838L34.8398 13.9502H34.8418C34.8805 13.9557 34.9041 13.969 34.9238 13.9873C34.9476 14.0093 34.9743 14.0471 34.9902 14.1006C35.0148 14.1834 35.0049 14.2587 34.9697 14.3184L34.9258 14.373L27.001 21.9248L26.6133 22.2939L26.7061 22.8213L28.5732 33.4639C28.5941 33.5822 28.5494 33.666 28.4893 33.7139C28.4584 33.7383 28.4293 33.7476 28.4102 33.75C28.3956 33.7517 28.373 33.7524 28.3359 33.7334H28.3369L18.457 28.6572L18 28.4229L17.543 28.6572L7.66992 33.7334C7.63285 33.7523 7.61013 33.7518 7.5957 33.75C7.57652 33.7476 7.54824 33.7382 7.51758 33.7139C7.47245 33.678 7.43539 33.6224 7.42871 33.5469L7.43359 33.4639L9.30078 22.8213L9.39355 22.2939L9.00586 21.9248L1.0791 14.373H1.07812C1.01137 14.3085 0.98361 14.2123 1.0166 14.1016C1.03265 14.0477 1.05913 14.0094 1.08301 13.9873C1.09298 13.9781 1.10388 13.9702 1.11719 13.9639L1.16504 13.9502H1.16699L12.1875 12.3838L12.7041 12.3105L12.9395 11.8447L17.8535 2.1084L17.8525 2.10742C17.8793 2.05481 17.9086 2.03205 17.9277 2.02051C17.9496 2.00729 17.9755 2.00006 18.0029 2Z" fill="#EB004B" stroke="#EB004B" stroke-width="2"/>
<path d="M54 2C54.0276 2 54.0542 2.00723 54.0762 2.02051C54.0954 2.03217 54.1235 2.05619 54.1504 2.10938V2.1084L59.0645 11.8447L59.2998 12.3105L59.8164 12.3838L70.8369 13.9502H70.8389C70.8776 13.9557 70.9012 13.969 70.9209 13.9873C70.9446 14.0093 70.9714 14.0471 70.9873 14.1006C71.0119 14.1834 71.002 14.2587 70.9668 14.3184L70.9229 14.373L62.998 21.9248L62.6104 22.2939L62.7031 22.8213L64.5703 33.4639C64.5911 33.5822 64.5465 33.666 64.4863 33.7139C64.4555 33.7383 64.4264 33.7476 64.4072 33.75C64.3927 33.7517 64.3701 33.7524 64.333 33.7334H64.334L54.4541 28.6572L53.9971 28.4229L53.54 28.6572L43.667 33.7334C43.6299 33.7523 43.6072 33.7518 43.5928 33.75C43.5736 33.7476 43.5453 33.7382 43.5146 33.7139C43.4695 33.678 43.4325 33.6224 43.4258 33.5469L43.4307 33.4639L45.2979 22.8213L45.3906 22.2939L45.0029 21.9248L37.0762 14.373H37.0752C37.0084 14.3085 36.9807 14.2123 37.0137 14.1016C37.0297 14.0477 37.0562 14.0094 37.0801 13.9873C37.0901 13.9781 37.101 13.9702 37.1143 13.9639L37.1621 13.9502H37.1641L48.1846 12.3838L48.7012 12.3105L48.9365 11.8447L53.8506 2.1084L53.8496 2.10742C53.8764 2.05481 53.9057 2.03205 53.9248 2.02051C53.9467 2.00729 53.9726 2.00006 54 2Z" fill="#EB004B" stroke="#EB004B" stroke-width="2"/>
<path d="M90 2C90.0276 2 90.0542 2.00723 90.0762 2.02051C90.0954 2.03217 90.1235 2.05619 90.1504 2.10938V2.1084L95.0645 11.8447L95.2998 12.3105L95.8164 12.3838L106.837 13.9502H106.839C106.878 13.9557 106.901 13.969 106.921 13.9873C106.945 14.0093 106.971 14.0471 106.987 14.1006C107.012 14.1834 107.002 14.2587 106.967 14.3184L106.923 14.373L98.998 21.9248L98.6104 22.2939L98.7031 22.8213L100.57 33.4639C100.591 33.5822 100.546 33.666 100.486 33.7139C100.455 33.7383 100.426 33.7476 100.407 33.75C100.393 33.7517 100.37 33.7524 100.333 33.7334H100.334L90.4541 28.6572L89.9971 28.4229L89.54 28.6572L79.667 33.7334C79.6299 33.7523 79.6072 33.7518 79.5928 33.75C79.5736 33.7476 79.5453 33.7382 79.5146 33.7139C79.4695 33.678 79.4325 33.6224 79.4258 33.5469L79.4307 33.4639L81.2979 22.8213L81.3906 22.2939L81.0029 21.9248L73.0762 14.373H73.0752C73.0084 14.3085 72.9807 14.2123 73.0137 14.1016C73.0297 14.0477 73.0562 14.0094 73.0801 13.9873C73.0901 13.9781 73.101 13.9702 73.1143 13.9639L73.1621 13.9502H73.1641L84.1846 12.3838L84.7012 12.3105L84.9365 11.8447L89.8506 2.1084L89.8496 2.10742C89.8764 2.05481 89.9057 2.03205 89.9248 2.02051C89.9467 2.00729 89.9726 2.00006 90 2Z" fill="#EB004B" stroke="#EB004B" stroke-width="2"/>
<path d="M126 2C126.028 2 126.054 2.00723 126.076 2.02051C126.095 2.03217 126.124 2.05619 126.15 2.10938V2.1084L131.064 11.8447L131.3 12.3105L131.816 12.3838L142.837 13.9502H142.839C142.878 13.9557 142.901 13.969 142.921 13.9873C142.945 14.0093 142.971 14.0471 142.987 14.1006C143.012 14.1834 143.002 14.2587 142.967 14.3184L142.923 14.373L134.998 21.9248L134.61 22.2939L134.703 22.8213L136.57 33.4639C136.591 33.5822 136.546 33.666 136.486 33.7139C136.455 33.7383 136.426 33.7476 136.407 33.75C136.393 33.7517 136.37 33.7524 136.333 33.7334H136.334L126.454 28.6572L125.997 28.4229L125.54 28.6572L115.667 33.7334C115.63 33.7523 115.607 33.7518 115.593 33.75C115.574 33.7476 115.545 33.7382 115.515 33.7139C115.47 33.678 115.432 33.6224 115.426 33.5469L115.431 33.4639L117.298 22.8213L117.391 22.2939L117.003 21.9248L109.076 14.373H109.075C109.008 14.3085 108.981 14.2123 109.014 14.1016C109.03 14.0477 109.056 14.0094 109.08 13.9873C109.09 13.9781 109.101 13.9702 109.114 13.9639L109.162 13.9502H109.164L120.185 12.3838L120.701 12.3105L120.937 11.8447L125.851 2.1084L125.85 2.10742C125.876 2.05481 125.906 2.03205 125.925 2.02051C125.947 2.00729 125.973 2.00006 126 2Z" fill="#EB004B" stroke="#EB004B" stroke-width="2"/>
<path d="M162 2C162.028 2 162.054 2.00723 162.076 2.02051C162.095 2.03217 162.124 2.05619 162.15 2.10938V2.1084L167.064 11.8447L167.3 12.3105L167.816 12.3838L178.837 13.9502H178.839C178.878 13.9557 178.901 13.969 178.921 13.9873C178.945 14.0093 178.971 14.0471 178.987 14.1006C179.012 14.1834 179.002 14.2587 178.967 14.3184L178.923 14.373L170.998 21.9248L170.61 22.2939L170.703 22.8213L172.57 33.4639C172.591 33.5822 172.546 33.666 172.486 33.7139C172.455 33.7383 172.426 33.7476 172.407 33.75C172.393 33.7517 172.37 33.7524 172.333 33.7334H172.334L162.454 28.6572L161.997 28.4229L161.54 28.6572L151.667 33.7334C151.63 33.7523 151.607 33.7518 151.593 33.75C151.574 33.7476 151.545 33.7382 151.515 33.7139C151.47 33.678 151.432 33.6224 151.426 33.5469L151.431 33.4639L153.298 22.8213L153.391 22.2939L153.003 21.9248L145.076 14.373H145.075C145.008 14.3085 144.981 14.2123 145.014 14.1016C145.03 14.0477 145.056 14.0094 145.08 13.9873C145.09 13.9781 145.101 13.9702 145.114 13.9639L145.162 13.9502H145.164L156.185 12.3838L156.701 12.3105L156.937 11.8447L161.851 2.1084L161.85 2.10742C161.876 2.05481 161.906 2.03205 161.925 2.02051C161.947 2.00729 161.973 2.00006 162 2Z" fill="#EB004B" stroke="#EB004B" stroke-width="2"/>
</g>
<defs>
<clipPath id="clip0_323_2">
<rect width="180" height="36" fill="white"/>
</clipPath>
</defs>
</svg>
