<svg width="115" height="115" viewBox="0 0 115 115" fill="none" xmlns="http://www.w3.org/2000/svg">
<path d="M51.49 9.34549C49.121 10.1904 47.1771 11.9296 46.075 14.1905L45.6725 14.1798C43.8225 14.1779 42.009 14.6941 40.4374 15.6701C38.8658 16.646 37.599 18.0426 36.7805 19.7017C34.5968 20.4571 32.7474 21.9549 31.5548 23.934C30.3621 25.9131 29.9018 28.248 30.254 30.5317C29.5795 31.2489 29.0213 32.0541 28.5796 32.9471C26.7723 33.5668 25.1839 34.6979 24.007 36.203C22.8301 37.7081 22.1155 39.5224 21.9498 41.4258C20.5918 42.6237 19.5571 44.144 18.9408 45.8467C18.3244 47.5493 18.1463 49.3797 18.4229 51.1692L18.4265 51.1799L26.7271 103.73C27.0546 105.76 28.0941 107.608 29.6594 108.941C31.2247 110.275 33.2136 111.008 35.27 111.009H81.2262C85.4656 111.009 89.0993 107.927 89.7691 103.73L98.0697 51.1977V51.1871C98.2973 49.7964 98.2477 48.3745 97.9236 47.0032C97.5996 45.6318 97.0075 44.338 96.1816 43.1964C96.2101 42.8924 96.2243 42.5896 96.2243 42.2879C96.2272 40.2314 95.5863 38.2256 94.3916 36.5517C93.1969 34.8778 91.5083 33.6198 89.5625 32.9542C89.1273 32.0683 88.563 31.2519 87.8881 30.5317C87.9593 30.0424 87.9962 29.5437 87.9985 29.0354C88.0011 26.9785 87.3598 24.9723 86.1644 23.2984C84.969 21.6245 83.2795 20.3667 81.3331 19.7017C80.646 18.3008 79.6364 17.0828 78.3873 16.1477C77.1383 15.2126 75.6852 14.587 74.1475 14.3223C73.6035 13.1759 72.8381 12.1485 71.8953 11.2993C70.9525 10.45 69.8509 9.79568 68.6542 9.37399C67.8593 7.77958 66.6363 6.43789 65.1222 5.49912C63.608 4.56035 61.8624 4.06157 60.0809 4.05861C58.2993 4.05565 56.5521 4.54863 55.0349 5.48237C53.5176 6.4161 52.2902 7.75373 51.49 9.34549ZM87.4606 42.2879C85.6152 42.2879 83.9302 42.9791 82.6512 44.1226C81.7777 42.4917 80.4781 41.1284 78.8909 40.1779C77.3036 39.2274 75.4882 38.7254 73.6381 38.7254C71.7277 38.7247 69.8556 39.2611 68.2354 40.2734C66.6152 41.2857 65.3123 42.7331 64.4753 44.4504C63.6594 43.5977 62.679 42.9194 61.5934 42.4564C60.5079 41.9934 59.3397 41.7554 58.1595 41.7568C56.9794 41.7581 55.8117 41.9987 54.7272 42.4642C53.6427 42.9296 52.6639 43.6101 51.8498 44.4646C50.8786 42.4688 49.2843 40.8432 47.3077 39.8334L48.2339 39.4415C48.3455 39.394 48.4583 39.3524 48.5723 39.3168C49.805 38.9249 50.7312 37.9631 51.1552 36.8124L51.1694 36.7767L51.1801 36.7411C51.7715 34.8886 53.4565 33.5954 55.4693 33.5954C56.4462 33.5914 57.3981 33.9036 58.1827 34.4853C58.9674 35.0671 59.5428 35.8872 59.8227 36.8231L60.5281 38.729L62.3236 37.7814C62.678 37.5945 63.0553 37.4544 63.4458 37.3646C63.9734 37.2463 64.4636 36.9993 64.8726 36.6456C65.2816 36.2919 65.5967 35.8425 65.7899 35.3375L65.8006 35.3126L65.8077 35.2841C66.1213 34.4034 66.7 33.6414 67.4642 33.103C68.2285 32.5646 69.1407 32.2761 70.0756 32.2773C71.75 32.2773 73.2213 33.1822 74.0015 34.5359L75.3873 36.9442L76.9975 34.6784C77.4165 34.0892 77.9706 33.609 78.6134 33.278C79.2561 32.947 79.9689 32.7749 80.6918 32.7761C82.6655 32.7761 84.3505 34.0301 84.9597 35.7828L84.9633 35.7971C85.1469 36.315 85.4606 36.7771 85.8742 37.1389C86.2878 37.5007 86.7874 37.7502 87.3252 37.8633C88.4733 38.1146 89.4786 38.8028 90.1282 39.7822C90.7778 40.7617 91.0208 41.9554 90.8058 43.1109C89.7748 42.5671 88.6262 42.2845 87.4606 42.2879ZM80.2643 48.9142L75.6331 107.446H64.6962L67.0118 48.6648C67.0967 46.9579 67.836 45.3493 69.0762 44.1734C70.3163 42.9975 71.9619 42.3447 73.6709 42.3507C75.3799 42.3566 77.0209 43.0209 78.2528 44.2055C79.4847 45.39 80.2128 47.0037 80.2857 48.7111L80.2643 48.9142ZM46.841 39.6125C44.5069 38.5667 41.8647 38.438 39.4401 39.2519C37.0155 40.0658 34.9861 41.7628 33.7559 44.0051C32.8736 43.2517 31.8222 42.7229 30.6914 42.4636C29.5606 42.2043 28.3838 42.2223 27.2615 42.5159L27.2543 42.2879C27.2543 40.1148 28.7933 38.2979 30.799 37.8669C31.3296 37.7504 31.8229 37.5038 32.2346 37.1493C32.6463 36.7949 32.9634 36.3437 33.1574 35.8362L33.1681 35.8113L33.1752 35.7828C33.4888 34.9021 34.0675 34.1402 34.8317 33.6018C35.596 33.0634 36.5082 32.7749 37.4431 32.7761C39.4488 32.7761 41.0982 34.0229 41.711 35.7828L41.7145 35.7971C41.8981 36.315 42.2118 36.7771 42.6254 37.1389C43.039 37.5007 43.5387 37.7502 44.0765 37.8633C44.9126 38.053 45.6798 38.4711 46.2923 39.071L46.841 39.6125ZM36.1178 48.0449C36.3256 46.4519 37.1062 44.989 38.3138 43.9296C39.5214 42.8701 41.0735 42.2866 42.68 42.2879C46.2425 42.2879 49.1637 45.1023 49.3062 48.6648L51.6575 107.446H40.8631L36.2318 48.9142C36.2129 48.6224 36.1725 48.3321 36.1178 48.0449ZM53.7736 14.2404C54.296 14.1324 54.7811 13.8899 55.181 13.5368C55.5809 13.1838 55.8817 12.7325 56.0536 12.2276C56.3519 11.4025 56.8968 10.6891 57.6144 10.1844C58.3321 9.67963 59.1876 9.40789 60.065 9.40606C61.9246 9.40606 63.5028 10.5817 64.0799 12.2632L64.0977 12.3202L64.1191 12.3701C64.5323 13.3569 65.4051 14.0444 66.3991 14.276H66.4062C67.0332 14.42 67.6196 14.7037 68.1217 15.1059C68.6238 15.508 69.0286 16.0183 69.3061 16.5987C69.0774 16.6939 68.8539 16.8009 68.6363 16.9194C67.6815 16.1375 66.5556 15.5922 65.3502 15.3278C64.1448 15.0634 62.8939 15.0873 61.6995 15.3977C60.5051 15.7081 59.4009 16.2962 58.4768 17.1141C57.5526 17.9319 56.8347 18.9564 56.3813 20.1042C55.4411 20.3425 54.5532 20.7532 53.7629 21.3155C53.589 21.2613 53.4132 21.2137 53.2357 21.173C52.6938 19.7405 51.7545 18.4923 50.5282 17.5749C50.8559 15.9147 52.1277 14.6073 53.7558 14.2439L53.7736 14.2404ZM57.2898 23.5492C57.8278 23.4537 58.3306 23.2161 58.7459 22.8609C59.1612 22.5058 59.4739 22.046 59.6517 21.5292C59.9102 20.8141 60.3547 20.1809 60.9394 19.6948C61.5242 19.2087 62.228 18.8874 62.9783 18.764C63.7286 18.6406 64.4983 18.7195 65.2079 18.9927C65.9176 19.2658 66.5415 19.7233 67.0154 20.318L68.1483 21.7501L69.5555 20.5745C70.372 19.893 71.4025 19.5209 72.466 19.5236C74.4397 19.5236 76.1247 20.7776 76.7339 22.5303L76.7375 22.5446C76.9211 23.0625 77.2347 23.5246 77.6484 23.8864C78.062 24.2482 78.5616 24.4977 79.0994 24.6108C80.1777 24.8468 81.1325 25.469 81.7841 26.36C82.4357 27.251 82.739 28.3496 82.637 29.4487C81.4387 29.154 80.189 29.1363 78.9829 29.3968C77.7767 29.6573 76.6457 30.1892 75.6758 30.9521C74.1692 29.5138 72.1656 28.7124 70.0827 28.7148C66.6378 28.7148 63.6702 30.863 62.516 33.9232L62.4127 33.9517C61.6928 32.7548 60.6752 31.7648 59.459 31.0781C58.2429 30.3913 56.8696 30.0312 55.4729 30.0329C51.8748 30.0329 48.868 32.3486 47.8064 35.6047L47.7708 35.6759C46.9365 35.0898 46.0002 34.6645 45.0098 34.4219C44.4301 32.8858 43.3946 31.5636 42.0421 30.6327C40.6897 29.7018 39.0849 29.2066 37.4431 29.2136C36.7757 29.2136 36.1285 29.2919 35.5015 29.4487C35.3982 28.354 35.6971 27.2592 36.3422 26.3689C36.9873 25.4785 37.9346 24.8535 39.007 24.6108C39.5529 24.5023 40.0601 24.2504 40.4765 23.881C40.8928 23.5116 41.2033 23.038 41.3761 22.5089C41.6993 21.6305 42.2849 20.8729 43.0536 20.3388C43.8222 19.8047 44.7365 19.5201 45.6725 19.5236C47.6461 19.5236 49.3312 20.7776 49.9403 22.5303L49.9439 22.5446C50.1275 23.0625 50.4412 23.5246 50.8548 23.8864C51.2684 24.2482 51.7681 24.4977 52.3058 24.6108C52.6621 24.6916 52.997 24.8091 53.3105 24.9635L54.4362 25.5086L55.334 24.6357C55.8755 24.1085 56.5488 23.7273 57.2862 23.5492" fill="#E0E0E0"/>
</svg>
