<svg width="115" height="115" viewBox="0 0 115 115" fill="none" xmlns="http://www.w3.org/2000/svg">
<path d="M22.7122 24.6466C16.1572 31.7574 12.3275 41.3369 11.4048 52.2417L4.09101 59.5556C4.07163 58.8705 4.06213 58.1853 4.06251 57.5C4.06251 43.0327 8.43014 29.6377 17.4682 19.823C26.5526 9.95487 40.0259 4.0625 57.5 4.0625C74.9741 4.0625 88.4439 9.95487 97.5247 19.8194C106.563 29.6341 110.934 43.0291 110.934 57.4964L110.923 58.6792L103.499 51.2514C102.43 40.7598 98.6362 31.5436 92.2843 24.6466C84.7424 16.46 73.2819 11.1875 57.5 11.1875C41.7181 11.1875 30.2469 16.46 22.7122 24.6466ZM100.026 78.02C98.2005 82.5581 95.5775 86.7328 92.2807 90.3462C84.7425 98.5329 73.2819 103.805 57.4964 103.805C41.711 103.805 30.2505 98.5329 22.7122 90.3462C19.487 86.8087 16.9067 82.7333 15.0884 78.305C12.5492 79.1232 9.80111 79.007 7.34001 77.9772C9.56301 84.4004 12.926 90.2394 17.4682 95.1734C26.5526 105.038 40.0259 110.93 57.4964 110.93C74.9669 110.93 88.4403 105.038 97.5211 95.1734C101.974 90.3356 105.298 84.6284 107.521 78.3513C105.059 79.1059 102.411 78.9912 100.026 78.02Z" fill="#E0E0E0"/>
<path d="M81.2583 57.5H34.6287C34.2597 59.8052 33.1696 61.9342 31.5151 63.5812L27.2045 67.8954C30.0758 77.2612 37.6355 89.5625 57.5 89.5625C77.849 89.5625 85.2875 76.6449 87.9985 67.2114L84.3719 63.5812C82.7173 61.9342 81.6273 59.8052 81.2583 57.5ZM16.9943 73.0681L29 61.0625C30.4172 59.6453 31.2134 57.723 31.2134 55.7188C31.2134 53.7145 30.4172 51.7922 29 50.375C28.2982 49.6732 27.4651 49.1166 26.5482 48.7368C25.6313 48.357 24.6486 48.1615 23.6562 48.1615C21.6519 48.1615 19.7297 48.9578 18.3125 50.375L6.30684 62.3806C4.88959 63.7979 4.09338 65.7201 4.09338 67.7244C4.09338 69.7287 4.88959 71.6509 6.30684 73.0681C7.72409 74.4854 9.64629 75.2816 11.6506 75.2816C13.6549 75.2816 15.5771 74.4854 16.9943 73.0681ZM86.8906 61.0625L98.8962 73.0681C99.598 73.7699 100.431 74.3265 101.348 74.7063C102.265 75.0861 103.248 75.2816 104.24 75.2816C105.232 75.2816 106.215 75.0861 107.132 74.7063C108.049 74.3265 108.882 73.7699 109.584 73.0681C110.285 72.3664 110.842 71.5333 111.222 70.6164C111.602 69.6995 111.797 68.7168 111.797 67.7244C111.797 66.732 111.602 65.7492 111.222 64.8324C110.842 63.9155 110.285 63.0824 109.584 62.3806L97.5781 50.375C96.1608 48.9578 94.2386 48.1615 92.2343 48.1615C90.23 48.1615 88.3078 48.9578 86.8906 50.375C85.4733 51.7922 84.6771 53.7145 84.6771 55.7188C84.6771 57.723 85.4733 59.6453 86.8906 61.0625ZM33.8058 37.5963C33.0576 38.405 32.6658 39.4844 32.4983 40.3679C32.409 40.8274 32.23 41.2647 31.9716 41.6549C31.7133 42.0452 31.3806 42.3807 30.9925 42.6424C30.6045 42.904 30.1687 43.0867 29.7101 43.18C29.2514 43.2732 28.7789 43.2752 28.3195 43.1859C27.8601 43.0965 27.4228 42.9175 27.0325 42.6592C26.6423 42.4008 26.3068 42.0681 26.0451 41.6801C25.7834 41.292 25.6007 40.8563 25.5075 40.3976C25.4142 39.939 25.4122 39.4665 25.5016 39.0071C25.8186 37.3826 26.606 34.8995 28.5582 32.7763C30.6138 30.5354 33.6882 29 37.9062 29C42.1634 29 45.2521 30.6102 47.297 32.8546C49.235 34.9814 50.0401 37.4574 50.3251 39.0783C50.4051 39.5394 50.3935 40.0117 50.291 40.4682C50.1884 40.9248 49.997 41.3567 49.7275 41.7393C49.4581 42.1219 49.1159 42.4476 48.7206 42.698C48.3253 42.9483 47.8845 43.1183 47.4234 43.1983C46.9624 43.2783 46.4901 43.2668 46.0335 43.1642C45.5769 43.0617 45.145 42.8702 44.7625 42.6008C44.3799 42.3314 44.0541 41.9892 43.8038 41.5939C43.5534 41.1985 43.3834 40.7577 43.3034 40.2967C43.1245 39.3166 42.6838 38.4033 42.028 37.6533C41.3618 36.9159 40.1933 36.125 37.9062 36.125C35.5799 36.125 34.4435 36.8981 33.8058 37.5927M72.9968 37.5963C72.2487 38.405 71.8568 39.4844 71.6858 40.3679C71.4947 41.2849 70.9502 42.0896 70.1701 42.6081C69.39 43.1265 68.4372 43.3168 67.5178 43.1379C66.5984 42.959 65.7865 42.4252 65.2577 41.6521C64.729 40.879 64.526 39.9287 64.6926 39.0071C65.0061 37.3826 65.797 34.8995 67.7457 32.7763C69.8013 30.5354 72.8757 29 77.0937 29C81.3545 29 84.4396 30.6102 86.4845 32.8546C88.4225 34.9814 89.2276 37.4574 89.5126 39.0783C89.5926 39.5394 89.581 40.0117 89.4785 40.4682C89.3759 40.9248 89.1845 41.3567 88.915 41.7393C88.6456 42.1219 88.3034 42.4476 87.9081 42.698C87.5127 42.9483 87.072 43.1183 86.6109 43.1983C86.1499 43.2783 85.6776 43.2668 85.221 43.1642C84.7644 43.0617 84.3325 42.8702 83.95 42.6008C83.5674 42.3314 83.2416 41.9892 82.9913 41.5939C82.7409 41.1985 82.5709 40.7577 82.4909 40.2967C82.312 39.3166 81.8713 38.4033 81.2155 37.6533C80.5493 36.9159 79.3808 36.125 77.0937 36.125C74.7674 36.125 73.6345 36.8981 72.9968 37.5927" fill="#E0E0E0"/>
</svg>
