<svg width="115" height="115" viewBox="0 0 115 115" fill="none" xmlns="http://www.w3.org/2000/svg">
<path d="M97.2575 7.625L82.2594 11.615L29.8906 25.4731L24.6181 26.8981L20.0581 28.1094L14.75 29.4988L18.2769 42.7869L28.1094 40.1863L59.1245 31.9462L59.1387 31.9569L79.445 26.5775L79.4236 26.5597L95.4762 22.3025L100.784 20.9131L97.2575 7.625ZM33.3142 28.2519L49.3632 24.0054L55.7081 29.1674L39.6875 33.4175L33.3142 28.2519ZM69.6553 18.6331L82.1667 15.3271L83.1714 15.0599H83.1749L85.6901 14.3902L92.0456 19.5273L76.0001 23.7845L69.6553 18.6331ZM103.812 100.25V46.8125H18.3125V100.25C18.3125 102.14 19.0632 103.952 20.3994 105.288C21.7356 106.624 23.5478 107.375 25.4375 107.375H96.6875C98.5772 107.375 100.389 106.624 101.726 105.288C103.062 103.952 103.812 102.14 103.812 100.25ZM94.9953 50.375L87.8881 60.1362H71.3225L78.4297 50.375H94.9953ZM40.8453 50.375H57.4466L50.3394 60.1362H33.7381L40.8453 50.375Z" fill="#E0E0E0"/>
</svg>
