<svg width="115" height="115" viewBox="0 0 115 115" fill="none" xmlns="http://www.w3.org/2000/svg">
<path d="M70.2822 61.2691L70.9128 58.1163C71.1384 56.99 70.9215 55.8201 70.3072 54.8496C69.6929 53.879 68.7284 53.1824 67.6139 52.9043C60.9725 51.2428 54.024 51.2428 47.3825 52.9043C46.268 53.1824 45.3035 53.879 44.6892 54.8496C44.0749 55.8201 43.858 56.99 44.0836 58.1163L44.7177 61.2691C45.3121 64.2212 46.91 66.8766 49.24 68.7843C51.5701 70.6919 54.4886 71.7343 57.5 71.7343C60.5114 71.7343 63.4299 70.6919 65.7599 68.7843C68.09 66.8766 69.6879 64.2212 70.2822 61.2691Z" fill="#F5F5F5"/>
<path d="M39.6875 43.2503C39.6875 43.2503 39.6875 47.878 42.0459 52.4166C43.1146 50.9916 44.6643 49.9122 46.5204 49.4491C53.7291 47.6458 61.2709 47.6458 68.4796 49.4491C70.3357 49.9122 71.8854 50.9916 72.9541 52.4166C75.3125 47.878 75.3125 43.2503 75.3125 43.2503H39.6875ZM69.9687 36.1253C71.386 36.1253 72.7452 35.5623 73.7473 34.5602C74.7495 33.558 75.3125 32.1988 75.3125 30.7816C75.3125 29.3643 74.7495 28.0051 73.7473 27.003C72.7452 26.0008 71.386 25.4378 69.9687 25.4378C68.5515 25.4378 67.1923 26.0008 66.1901 27.003C65.188 28.0051 64.625 29.3643 64.625 30.7816C64.625 32.1988 65.188 33.558 66.1901 34.5602C67.1923 35.5623 68.5515 36.1253 69.9687 36.1253ZM42.2667 25.6266C42.0574 25.5197 41.829 25.4552 41.5946 25.437C41.3602 25.4188 41.1246 25.4471 40.9012 25.5204C40.6778 25.5937 40.4712 25.7104 40.2931 25.8639C40.1151 26.0175 39.9692 26.2047 39.8639 26.4149C39.7586 26.625 39.6959 26.854 39.6795 27.0885C39.6631 27.323 39.6932 27.5584 39.7682 27.7812C39.8432 28.004 39.9616 28.2097 40.1165 28.3866C40.2714 28.5634 40.4598 28.7078 40.6707 28.8115L44.6109 30.7816L40.6707 32.7516C40.4542 32.8517 40.2599 32.9942 40.0995 33.1707C39.939 33.3473 39.8157 33.5542 39.7368 33.7794C39.6579 34.0045 39.625 34.2432 39.64 34.4812C39.6551 34.7193 39.7178 34.9519 39.8245 35.1653C39.9312 35.3787 40.0797 35.5684 40.2611 35.7233C40.4425 35.8782 40.6532 35.9951 40.8806 36.067C41.1081 36.139 41.3476 36.1645 41.5851 36.1421C41.8226 36.1196 42.0532 36.0497 42.2632 35.9365L49.3882 32.374C49.6837 32.2259 49.9321 31.9985 50.1057 31.7173C50.2794 31.4361 50.3713 31.1121 50.3713 30.7816C50.3713 30.4511 50.2794 30.1271 50.1057 29.8458C49.9321 29.5646 49.6837 29.3372 49.3882 29.1891L42.2667 25.6266Z" fill="#F5F5F5"/>
<path d="M18.227 37.3042C21.0557 18.1843 37.8243 4.0625 57.5214 4.0625C77.2113 4.0625 94.0263 18.1807 96.8158 37.3113L96.8336 37.4253L97.4927 43.25H104.703C110.172 43.25 112.876 49.8763 109.039 53.7131L99.7335 63.0219L103.702 98.0591C104.628 104.586 99.6587 110.595 92.979 110.905H92.9683C90.7843 111.007 88.6028 110.66 86.5578 109.887C84.5127 109.114 82.6475 107.93 81.0767 106.41C79.4064 104.814 77.1857 103.924 74.8761 103.924C72.5665 103.924 70.3458 104.814 68.6756 106.41C62.5018 112.42 52.5054 112.42 46.3316 106.41C44.6612 104.813 42.4397 103.923 40.1293 103.923C37.8188 103.923 35.5974 104.813 33.927 106.41C32.1976 108.089 30.1117 109.357 27.8247 110.118C25.5376 110.88 23.1082 111.116 20.7172 110.809C14.3582 110.001 10.4572 103.937 11.3051 98.1196L15.2844 63.143L5.85447 53.7131C2.0141 49.8763 4.7216 43.25 10.19 43.25H17.5466L18.2092 37.4218L18.227 37.3042ZM25.2808 38.291L24.269 47.2151C24.1701 48.0848 23.7544 48.8877 23.1013 49.4706C22.4482 50.0534 21.6033 50.3754 20.7279 50.375H12.5912L21.5366 59.3204C21.9158 59.6991 22.2046 60.1584 22.3816 60.6642C22.5586 61.17 22.6193 61.7092 22.559 62.2417L18.3767 98.9889L18.3588 99.1243C18.0097 101.404 19.5879 103.485 21.615 103.741C24.2477 104.073 26.9587 103.253 28.9573 101.304C35.1311 95.291 45.1275 95.291 51.3013 101.304C52.9715 102.9 55.1922 103.79 57.5018 103.79C59.8114 103.79 62.0321 102.9 63.7023 101.304C69.8797 95.291 79.8761 95.291 86.0499 101.304C86.924 102.147 87.9612 102.802 89.0976 103.229C90.234 103.656 91.4457 103.846 92.6583 103.788C95.1735 103.666 96.9903 101.383 96.6448 99.0352L96.627 98.9141L92.4588 62.1134C92.3991 61.5815 92.4601 61.043 92.6371 60.5379C92.8141 60.0328 93.1026 59.574 93.4813 59.1958L102.298 50.375H94.3078C93.4324 50.3754 92.5875 50.0534 91.9344 49.4706C91.2813 48.8877 90.8656 48.0848 90.7667 47.2151L89.7549 38.2839C87.4785 22.8262 73.7985 11.1875 57.5178 11.1875C41.2479 11.1875 27.5964 22.8191 25.2808 38.291Z" fill="#F5F5F5"/>
</svg>
