<svg width="115" height="115" viewBox="0 0 115 115" fill="none" xmlns="http://www.w3.org/2000/svg">
<path d="M41.0128 14.7896C27.3149 11.366 15.7582 14.8394 9.18894 24.6969C9.05544 24.909 8.88083 25.0922 8.6754 25.2357C8.46998 25.3792 8.2379 25.4802 7.99284 25.5326C7.74778 25.585 7.49471 25.5879 7.24854 25.541C7.00237 25.494 6.76809 25.3983 6.5595 25.2594C6.35091 25.1205 6.17225 24.9412 6.03403 24.7322C5.89581 24.5232 5.80085 24.2886 5.75473 24.0422C5.7086 23.7959 5.71226 23.5429 5.76549 23.298C5.81871 23.0531 5.92043 22.8213 6.06463 22.6164C13.7418 11.0988 27.1226 7.44726 41.9248 11.1451C42.1641 11.205 42.3892 11.3114 42.5874 11.4583C42.7855 11.6052 42.9528 11.7897 43.0797 12.0013C43.2066 12.2128 43.2905 12.4473 43.3268 12.6913C43.363 12.9353 43.3509 13.1841 43.291 13.4234C43.2311 13.6627 43.1247 13.8878 42.9778 14.086C42.8309 14.2841 42.6464 14.4514 42.4348 14.5783C42.2233 14.7052 41.9888 14.7891 41.7448 14.8254C41.5008 14.8616 41.2521 14.8495 41.0128 14.7896ZM72.8116 29.4778C64.1619 30.9847 57.5 41.006 57.5 41.006C57.5 41.006 50.8738 30.9491 42.1884 29.4778C20.7884 25.7941 11.957 44.2301 15.5159 57.9706C20.4928 77.0656 43.2749 95.3626 53.0398 102.477C54.3344 103.425 55.8972 103.936 57.5018 103.936C59.1064 103.936 60.6692 103.425 61.9638 102.477C71.7251 95.3626 94.5073 77.0621 99.4841 57.9706C103.047 44.2657 94.2116 25.7977 72.8116 29.4778Z" fill="#E0E0E0"/>
<path d="M18.0168 28.2059C19.6021 25.8119 21.6078 23.8953 24.1586 22.7375C26.6986 21.5833 29.912 21.1166 34.0338 21.8469C34.4901 21.9097 34.953 21.7932 35.3253 21.522C35.6976 21.2508 35.9504 20.846 36.0306 20.3924C36.1108 19.9389 36.0122 19.4719 35.7554 19.0894C35.4987 18.707 35.1038 18.4389 34.6537 18.3414C29.9405 17.5042 25.979 17.9958 22.6837 19.4956C19.3991 20.9919 16.916 23.4179 15.0457 26.2359C14.9163 26.431 14.8267 26.6496 14.7818 26.8794C14.737 27.1091 14.7378 27.3454 14.7843 27.5748C14.8308 27.8043 14.922 28.0223 15.0527 28.2164C15.1834 28.4106 15.3511 28.5771 15.5462 28.7065C15.7413 28.8358 15.96 28.9255 16.1897 28.9704C16.4194 29.0152 16.6558 29.0144 16.8852 28.9679C17.1146 28.9214 17.3326 28.8302 17.5268 28.6995C17.7209 28.5687 17.8875 28.401 18.0168 28.2059ZM73.9873 14.7896C87.6886 11.366 99.2454 14.8394 105.815 24.6969C106.096 25.0973 106.523 25.3718 107.005 25.4619C107.486 25.552 107.983 25.4506 108.391 25.1792C108.798 24.9079 109.084 24.4881 109.186 24.0093C109.288 23.5305 109.2 23.0307 108.939 22.6164C101.258 11.0988 87.8774 7.44726 73.0752 11.1451C72.592 11.2661 72.1765 11.574 71.9203 12.0013C71.6641 12.4285 71.5881 12.9401 71.709 13.4234C71.83 13.9066 72.1379 14.3221 72.5652 14.5783C72.9924 14.8345 73.504 14.9105 73.9873 14.7896Z" fill="#E0E0E0"/>
<path d="M96.9868 28.2063C95.3979 25.8123 93.3887 23.8957 90.8415 22.7379C88.3014 21.5837 85.0881 21.117 80.9663 21.8473C80.732 21.898 80.49 21.901 80.2546 21.856C80.0192 21.811 79.7953 21.7189 79.5963 21.5853C79.3973 21.4517 79.2273 21.2794 79.0965 21.0786C78.9657 20.8777 78.8768 20.6526 78.8351 20.4166C78.7933 20.1806 78.7997 19.9386 78.8537 19.7051C78.9077 19.4716 79.0082 19.2514 79.1493 19.0577C79.2904 18.8639 79.4692 18.7007 79.6749 18.5777C79.8806 18.4547 80.109 18.3744 80.3464 18.3418C85.0596 17.5046 89.0246 17.9962 92.3164 19.496C95.601 20.9923 98.0876 23.4183 99.9544 26.2363C100.084 26.4314 100.173 26.65 100.218 26.8798C100.263 27.1095 100.262 27.3458 100.216 27.5752C100.169 27.8047 100.078 28.0227 99.9474 28.2168C99.8166 28.411 99.6489 28.5775 99.4538 28.7069C99.2588 28.8362 99.0401 28.9259 98.8104 28.9707C98.5806 29.0156 98.3443 29.0148 98.1149 28.9683C97.8855 28.9218 97.6675 28.8306 97.4733 28.6999C97.2791 28.5691 97.1162 28.4014 96.9868 28.2063Z" fill="#E0E0E0"/>
</svg>
