<svg width="180" height="36" viewBox="0 0 180 36" fill="none" xmlns="http://www.w3.org/2000/svg">
<symbol id="FiveStarsIcon" viewBox="0 0 180 36">
<g clip-path="url(#clip0_323_2)">
<path d="M18.0029 2.12292C18.0305 2.12292 18.0571 2.13015 18.0791 2.14343C18.0984 2.1551 18.1265 2.17912 18.1533 2.2323V2.23132L23.0674 11.9677L23.3027 12.4335L23.8193 12.5067L34.8398 14.0731H34.8418C34.8805 14.0786 34.9041 14.092 34.9238 14.1102C34.9476 14.1322 34.9743 14.17 34.9902 14.2235C35.0148 14.3063 35.0049 14.3816 34.9697 14.4413L34.9258 14.496L27.001 22.0477L26.6133 22.4169L26.7061 22.9442L28.5732 33.5868C28.5941 33.7051 28.5494 33.7889 28.4893 33.8368C28.4584 33.8612 28.4293 33.8706 28.4102 33.8729C28.3956 33.8747 28.373 33.8753 28.3359 33.8563H28.3369L18.457 28.7802L18 28.5458L17.543 28.7802L7.66992 33.8563C7.63285 33.8752 7.61013 33.8747 7.5957 33.8729C7.57652 33.8705 7.54824 33.8611 7.51758 33.8368C7.47245 33.8009 7.43539 33.7453 7.42871 33.6698L7.43359 33.5868L9.30078 22.9442L9.39355 22.4169L9.00586 22.0477L1.0791 14.496H1.07812C1.01137 14.4314 0.98361 14.3352 1.0166 14.2245C1.03265 14.1706 1.05913 14.1323 1.08301 14.1102C1.09298 14.101 1.10388 14.0931 1.11719 14.0868L1.16504 14.0731H1.16699L12.1875 12.5067L12.7041 12.4335L12.9395 11.9677L17.8535 2.23132L17.8525 2.23035C17.8793 2.17773 17.9086 2.15498 17.9277 2.14343C17.9496 2.13021 17.9755 2.12299 18.0029 2.12292Z" fill="#1F1F1F" stroke="#EB004B" stroke-width="2"/>
<path d="M54 2C54.0276 2 54.0542 2.00723 54.0762 2.02051C54.0954 2.03217 54.1235 2.05619 54.1504 2.10938V2.1084L59.0645 11.8447L59.2998 12.3105L59.8164 12.3838L70.8369 13.9502H70.8389C70.8776 13.9557 70.9012 13.969 70.9209 13.9873C70.9446 14.0093 70.9714 14.0471 70.9873 14.1006C71.0119 14.1834 71.002 14.2587 70.9668 14.3184L70.9229 14.373L62.998 21.9248L62.6104 22.2939L62.7031 22.8213L64.5703 33.4639C64.5911 33.5822 64.5465 33.666 64.4863 33.7139C64.4555 33.7383 64.4264 33.7476 64.4072 33.75C64.3927 33.7517 64.3701 33.7524 64.333 33.7334H64.334L54.4541 28.6572L53.9971 28.4229L53.54 28.6572L43.667 33.7334C43.6299 33.7523 43.6072 33.7518 43.5928 33.75C43.5736 33.7476 43.5453 33.7382 43.5146 33.7139C43.4695 33.678 43.4325 33.6224 43.4258 33.5469L43.4307 33.4639L45.2979 22.8213L45.3906 22.2939L45.0029 21.9248L37.0762 14.373H37.0752C37.0084 14.3085 36.9807 14.2123 37.0137 14.1016C37.0297 14.0477 37.0562 14.0094 37.0801 13.9873C37.0901 13.9781 37.101 13.9702 37.1143 13.9639L37.1621 13.9502H37.1641L48.1846 12.3838L48.7012 12.3105L48.9365 11.8447L53.8506 2.1084L53.8496 2.10742C53.8764 2.05481 53.9057 2.03205 53.9248 2.02051C53.9467 2.00729 53.9726 2.00006 54 2Z" fill="#1F1F1F" stroke="#EB004B" stroke-width="2"/>
<path d="M90 1C90.0276 1 90.0542 1.00723 90.0762 1.02051C90.0954 1.03217 90.1235 1.05619 90.1504 1.10938V1.1084L95.0645 10.8447L95.2998 11.3105L95.8164 11.3838L106.837 12.9502H106.839C106.878 12.9557 106.901 12.969 106.921 12.9873C106.945 13.0093 106.971 13.0471 106.987 13.1006C107.012 13.1834 107.002 13.2587 106.967 13.3184L106.923 13.373L98.998 20.9248L98.6104 21.2939L98.7031 21.8213L100.57 32.4639C100.591 32.5822 100.546 32.666 100.486 32.7139C100.455 32.7383 100.426 32.7476 100.407 32.75C100.393 32.7517 100.37 32.7524 100.333 32.7334H100.334L90.4541 27.6572L89.9971 27.4229L89.54 27.6572L79.667 32.7334C79.6299 32.7523 79.6072 32.7518 79.5928 32.75C79.5736 32.7476 79.5453 32.7382 79.5146 32.7139C79.4695 32.678 79.4325 32.6224 79.4258 32.5469L79.4307 32.4639L81.2979 21.8213L81.3906 21.2939L81.0029 20.9248L73.0762 13.373H73.0752C73.0084 13.3085 72.9807 13.2123 73.0137 13.1016C73.0297 13.0477 73.0562 13.0094 73.0801 12.9873C73.0901 12.9781 73.101 12.9702 73.1143 12.9639L73.1621 12.9502H73.1641L84.1846 11.3838L84.7012 11.3105L84.9365 10.8447L89.8506 1.1084L89.8496 1.10742C89.8764 1.05481 89.9057 1.03205 89.9248 1.02051C89.9467 1.00729 89.9726 1.00006 90 1Z" fill="#1F1F1F" stroke="#EB004B" stroke-width="2"/>
<path d="M126 0C126.028 0 126.054 0.00722941 126.076 0.0205078C126.095 0.0321743 126.124 0.0561939 126.15 0.109375V0.108398L131.064 9.84473L131.3 10.3105L131.816 10.3838L142.837 11.9502H142.839C142.878 11.9557 142.901 11.969 142.921 11.9873C142.945 12.0093 142.971 12.0471 142.987 12.1006C143.012 12.1834 143.002 12.2587 142.967 12.3184L142.923 12.373L134.998 19.9248L134.61 20.2939L134.703 20.8213L136.57 31.4639C136.591 31.5822 136.546 31.666 136.486 31.7139C136.455 31.7383 136.426 31.7476 136.407 31.75C136.393 31.7517 136.37 31.7524 136.333 31.7334H136.334L126.454 26.6572L125.997 26.4229L125.54 26.6572L115.667 31.7334C115.63 31.7523 115.607 31.7518 115.593 31.75C115.574 31.7476 115.545 31.7382 115.515 31.7139C115.47 31.678 115.432 31.6224 115.426 31.5469L115.431 31.4639L117.298 20.8213L117.391 20.2939L117.003 19.9248L109.076 12.373H109.075C109.008 12.3085 108.981 12.2123 109.014 12.1016C109.03 12.0477 109.056 12.0094 109.08 11.9873C109.09 11.9781 109.101 11.9702 109.114 11.9639L109.162 11.9502H109.164L120.185 10.3838L120.701 10.3105L120.937 9.84473L125.851 0.108398L125.85 0.107422C125.876 0.0548084 125.906 0.0320543 125.925 0.0205078C125.947 0.0072865 125.973 6.10617e-05 126 0Z" fill="#1F1F1F" stroke="#EB004B" stroke-width="2"/>
<path d="M162 -1C162.028 -1 162.054 -0.992771 162.076 -0.979492C162.095 -0.967826 162.124 -0.943806 162.15 -0.890625V-0.891602L167.064 8.84473L167.3 9.31055L167.816 9.38379L178.837 10.9502H178.839C178.878 10.9557 178.901 10.969 178.921 10.9873C178.945 11.0093 178.971 11.0471 178.987 11.1006C179.012 11.1834 179.002 11.2587 178.967 11.3184L178.923 11.373L170.998 18.9248L170.61 19.2939L170.703 19.8213L172.57 30.4639C172.591 30.5822 172.546 30.666 172.486 30.7139C172.455 30.7383 172.426 30.7476 172.407 30.75C172.393 30.7517 172.37 30.7524 172.333 30.7334H172.334L162.454 25.6572L161.997 25.4229L161.54 25.6572L151.667 30.7334C151.63 30.7523 151.607 30.7518 151.593 30.75C151.574 30.7476 151.545 30.7382 151.515 30.7139C151.47 30.678 151.432 30.6224 151.426 30.5469L151.431 30.4639L153.298 19.8213L153.391 19.2939L153.003 18.9248L145.076 11.373H145.075C145.008 11.3085 144.981 11.2123 145.014 11.1016C145.03 11.0477 145.056 11.0094 145.08 10.9873C145.09 10.9781 145.101 10.9702 145.114 10.9639L145.162 10.9502H145.164L156.185 9.38379L156.701 9.31055L156.937 8.84473L161.851 -0.891602L161.85 -0.892578C161.876 -0.945192 161.906 -0.967946 161.925 -0.979492C161.947 -0.992713 161.973 -0.999939 162 -1Z" fill="#1F1F1F" stroke="#EB004B" stroke-width="2"/>
</g>
<defs>
<clipPath id="clip0_323_2">
<rect width="180" height="36" fill="currentColor"/>
</clipPath>
</defs>
</symbol>
</svg>

