<svg width="25" height="24" viewBox="0 0 25 24" fill="none" xmlns="http://www.w3.org/2000/svg">
<g clip-path="url(#clip0_177_154)">
<path d="M12.75 0C9.4935 0 9.084 0.015 7.8045 0.072C6.525 0.132 5.6535 0.333 4.89 0.63C4.08877 0.930488 3.36321 1.4031 2.7645 2.0145C2.1531 2.61321 1.68049 3.33877 1.38 4.14C1.083 4.902 0.8805 5.775 0.822 7.05C0.765 8.3325 0.75 8.7405 0.75 12.0015C0.75 15.2595 0.765 15.6675 0.822 16.947C0.882 18.225 1.083 19.0965 1.38 19.86C1.6875 20.649 2.097 21.318 2.7645 21.9855C3.4305 22.653 4.0995 23.064 4.8885 23.37C5.6535 23.667 6.5235 23.8695 7.8015 23.928C9.0825 23.985 9.4905 24 12.75 24C16.0095 24 16.416 23.985 17.697 23.928C18.9735 23.868 19.848 23.667 20.6115 23.37C21.4122 23.0693 22.1372 22.5967 22.7355 21.9855C23.403 21.318 23.8125 20.649 24.12 19.86C24.4155 19.0965 24.618 18.225 24.678 16.947C24.735 15.6675 24.75 15.2595 24.75 12C24.75 8.7405 24.735 8.3325 24.678 7.0515C24.618 5.775 24.4155 4.902 24.12 4.14C23.8195 3.33877 23.3469 2.61321 22.7355 2.0145C22.1368 1.4031 21.4112 0.930488 20.61 0.63C19.845 0.333 18.972 0.1305 17.6955 0.072C16.4145 0.015 16.008 0 12.747 0H12.75ZM11.6745 2.163H12.7515C15.9555 2.163 16.335 2.1735 17.5995 2.232C18.7695 2.2845 19.4055 2.481 19.8285 2.6445C20.388 2.862 20.7885 3.123 21.2085 3.543C21.6285 3.963 21.888 4.362 22.1055 4.923C22.2705 5.3445 22.4655 5.9805 22.518 7.1505C22.5765 8.415 22.5885 8.7945 22.5885 11.997C22.5885 15.1995 22.5765 15.5805 22.518 16.845C22.4655 18.015 22.269 18.6495 22.1055 19.0725C21.9117 19.5929 21.6049 20.0637 21.207 20.451C20.787 20.871 20.388 21.1305 19.827 21.348C19.407 21.513 18.771 21.708 17.5995 21.762C16.335 21.819 15.9555 21.8325 12.7515 21.8325C9.5475 21.8325 9.1665 21.819 7.902 21.762C6.732 21.708 6.0975 21.513 5.6745 21.348C5.15375 21.1549 4.6824 20.8485 4.2945 20.451C3.89591 20.0634 3.58849 19.592 3.3945 19.071C3.231 18.6495 3.0345 18.0135 2.982 16.8435C2.925 15.579 2.913 15.1995 2.913 11.994C2.913 8.7885 2.925 8.412 2.982 7.1475C3.036 5.9775 3.231 5.3415 3.396 4.9185C3.6135 4.359 3.8745 3.9585 4.2945 3.5385C4.7145 3.1185 5.1135 2.859 5.6745 2.6415C6.0975 2.4765 6.732 2.2815 7.902 2.2275C9.009 2.1765 9.438 2.1615 11.6745 2.16V2.163ZM19.1565 4.155C18.9674 4.155 18.7801 4.19225 18.6054 4.26461C18.4307 4.33698 18.272 4.44305 18.1383 4.57677C18.0045 4.71048 17.8985 4.86923 17.8261 5.04394C17.7537 5.21864 17.7165 5.4059 17.7165 5.595C17.7165 5.7841 17.7537 5.97135 17.8261 6.14606C17.8985 6.32077 18.0045 6.47952 18.1383 6.61323C18.272 6.74695 18.4307 6.85302 18.6054 6.92539C18.7801 6.99775 18.9674 7.035 19.1565 7.035C19.5384 7.035 19.9047 6.88329 20.1747 6.61323C20.4448 6.34318 20.5965 5.97691 20.5965 5.595C20.5965 5.21309 20.4448 4.84682 20.1747 4.57677C19.9047 4.30671 19.5384 4.155 19.1565 4.155ZM12.7515 5.838C11.9341 5.82525 11.1223 5.97523 10.3635 6.27921C9.60459 6.58319 8.91377 7.03511 8.33123 7.60863C7.74868 8.18216 7.28605 8.86585 6.97026 9.61989C6.65448 10.3739 6.49185 11.1833 6.49185 12.0007C6.49185 12.8182 6.65448 13.6276 6.97026 14.3816C7.28605 15.1356 7.74868 15.8193 8.33123 16.3929C8.91377 16.9664 9.60459 17.4183 10.3635 17.7223C11.1223 18.0263 11.9341 18.1763 12.7515 18.1635C14.3693 18.1383 15.9123 17.4779 17.0475 16.3249C18.1826 15.1719 18.8189 13.6188 18.8189 12.0007C18.8189 10.3827 18.1826 8.82962 17.0475 7.67662C15.9123 6.52363 14.3693 5.86324 12.7515 5.838ZM12.7515 7.9995C13.2769 7.9995 13.7971 8.10298 14.2824 8.30402C14.7678 8.50506 15.2088 8.79974 15.5803 9.17122C15.9518 9.5427 16.2464 9.98371 16.4475 10.4691C16.6485 10.9544 16.752 11.4746 16.752 12C16.752 12.5254 16.6485 13.0456 16.4475 13.5309C16.2464 14.0163 15.9518 14.4573 15.5803 14.8288C15.2088 15.2003 14.7678 15.4949 14.2824 15.696C13.7971 15.897 13.2769 16.0005 12.7515 16.0005C11.6905 16.0005 10.673 15.579 9.92272 14.8288C9.17248 14.0785 8.751 13.061 8.751 12C8.751 10.939 9.17248 9.92146 9.92272 9.17122C10.673 8.42098 11.6905 7.9995 12.7515 7.9995Z" fill="#F5F5F5"/>
</g>
<defs>
<clipPath id="clip0_177_154">
<rect width="24" height="24" fill="white" transform="translate(0.75)"/>
</clipPath>
</defs>
</svg>
