<svg width="32" height="32" viewBox="0 0 32 32" fill="none" xmlns="http://www.w3.org/2000/svg">
<g clip-path="url(#clip0_448_270)">
<path d="M12.7995 0.555509C13.0073 0.792985 13.1345 1.08326 13.1649 1.38904C13.1953 1.69483 13.1275 2.00215 12.9702 2.27153C11.7362 4.39426 11.0921 6.7741 11.0972 9.19164C11.0972 17.2338 18.09 23.7459 26.7084 23.7459C27.8348 23.7445 28.9248 23.6379 29.9787 23.4259C30.3011 23.3612 30.6366 23.3866 30.9437 23.4989C31.2509 23.6113 31.5161 23.8056 31.7066 24.0579C31.9082 24.3204 32.011 24.6382 31.9991 24.9615C31.9871 25.2847 31.861 25.5951 31.6405 25.8439C29.9672 27.7707 27.8565 29.3232 25.4621 30.3881C23.0677 31.4531 20.4501 32.0038 17.7999 32C7.96559 32 0 24.5719 0 15.4197C0 8.53163 4.50971 2.62354 10.9308 0.119502C11.2506 -0.00789951 11.6058 -0.0342625 11.943 0.0443975C12.2801 0.123057 12.5808 0.302465 12.7995 0.555509ZM10.3634 2.62154C7.89449 3.86339 5.83055 5.70908 4.39083 7.96251C2.9511 10.216 2.18938 12.793 2.18659 15.4197C2.18659 23.4599 9.18154 29.972 17.7999 29.972C19.8636 29.9749 21.9075 29.5942 23.8134 28.852C25.7193 28.1098 27.4493 27.0208 28.9035 25.6479C28.1839 25.7319 27.4522 25.7739 26.7084 25.7739C16.8741 25.7739 8.91062 18.3458 8.91062 9.19364C8.91062 6.8596 9.42687 4.63757 10.3634 2.62154Z" fill="#EB004B"/>
</g>
<defs>
<clipPath id="clip0_448_270">
<rect width="32" height="32" fill="white"/>
</clipPath>
</defs>
</svg>
