<svg width="36" height="36" viewBox="0 0 36 36" fill="none" xmlns="http://www.w3.org/2000/svg">
<g clip-path="url(#clip0_325_897)">
<path d="M28.9211 0.329385C28.7101 0.11848 28.424 0 28.1257 0C27.8274 0 27.5413 0.11848 27.3303 0.329385L23.6246 4.03513L31.9653 12.3759L35.6711 8.67239C35.7758 8.56788 35.8589 8.44374 35.9157 8.30706C35.9724 8.17038 36.0016 8.02386 36.0016 7.87588C36.0016 7.72791 35.9724 7.58139 35.9157 7.44471C35.8589 7.30803 35.7758 7.18389 35.6711 7.07938L28.9211 0.329385ZM30.3746 13.9666L22.0338 5.62588L7.40881 20.2509H7.87456C8.17293 20.2509 8.45908 20.3694 8.67006 20.5804C8.88104 20.7914 8.99956 21.0775 8.99956 21.3759V22.5009H10.1246C10.4229 22.5009 10.7091 22.6194 10.9201 22.8304C11.131 23.0414 11.2496 23.3275 11.2496 23.6259V24.7509H12.3746C12.6729 24.7509 12.9591 24.8694 13.1701 25.0804C13.381 25.2914 13.4996 25.5775 13.4996 25.8759V27.0009H14.6246C14.9229 27.0009 15.2091 27.1194 15.4201 27.3304C15.631 27.5414 15.7496 27.8275 15.7496 28.1259V28.5916L30.3746 13.9666ZM13.5716 30.7696C13.5242 30.6437 13.4998 30.5104 13.4996 30.3759V29.2509H12.3746C12.0762 29.2509 11.79 29.1324 11.5791 28.9214C11.3681 28.7104 11.2496 28.4243 11.2496 28.1259V27.0009H10.1246C9.82619 27.0009 9.54005 26.8824 9.32907 26.6714C9.11809 26.4604 8.99956 26.1743 8.99956 25.8759V24.7509H7.87456C7.57619 24.7509 7.29005 24.6324 7.07907 24.4214C6.86809 24.2104 6.74956 23.9243 6.74956 23.6259V22.5009H5.62456C5.49006 22.5006 5.3567 22.4762 5.23081 22.4289L4.82806 22.8294C4.72085 22.9373 4.63665 23.0659 4.58056 23.2074L0.0805637 34.4574C-0.00127034 34.6618 -0.0213032 34.8858 0.0229486 35.1015C0.0672003 35.3172 0.173791 35.5152 0.329505 35.6709C0.48522 35.8267 0.683211 35.9332 0.898932 35.9775C1.11465 36.0218 1.33862 36.0017 1.54306 35.9199L12.7931 31.4199C12.9345 31.3638 13.0631 31.2796 13.1711 31.1724L13.5716 30.7696Z" fill="#EB004B"/>
</g>
<defs>
<clipPath id="clip0_325_897">
<rect width="36" height="36" fill="white"/>
</clipPath>
</defs>
</svg>
