<svg width="36" height="36" viewBox="0 0 36 36" fill="none" xmlns="http://www.w3.org/2000/svg">
<g clip-path="url(#clip0_349_5)">
<path d="M36 18C36 22.7739 34.1036 27.3523 30.7279 30.7279C27.3523 34.1036 22.7739 36 18 36C13.2261 36 8.64773 34.1036 5.27208 30.7279C1.89642 27.3523 0 22.7739 0 18C0 13.2261 1.89642 8.64773 5.27208 5.27208C8.64773 1.89642 13.2261 0 18 0C22.7739 0 27.3523 1.89642 30.7279 5.27208C34.1036 8.64773 36 13.2261 36 18ZM19.125 10.125C19.125 9.82663 19.0065 9.54048 18.7955 9.3295C18.5845 9.11853 18.2984 9 18 9C17.7016 9 17.4155 9.11853 17.2045 9.3295C16.9935 9.54048 16.875 9.82663 16.875 10.125V16.875H10.125C9.82663 16.875 9.54048 16.9935 9.3295 17.2045C9.11853 17.4155 9 17.7016 9 18C9 18.2984 9.11853 18.5845 9.3295 18.7955C9.54048 19.0065 9.82663 19.125 10.125 19.125H16.875V25.875C16.875 26.1734 16.9935 26.4595 17.2045 26.6705C17.4155 26.8815 17.7016 27 18 27C18.2984 27 18.5845 26.8815 18.7955 26.6705C19.0065 26.4595 19.125 26.1734 19.125 25.875V19.125H25.875C26.1734 19.125 26.4595 19.0065 26.6705 18.7955C26.8815 18.5845 27 18.2984 27 18C27 17.7016 26.8815 17.4155 26.6705 17.2045C26.4595 16.9935 26.1734 16.875 25.875 16.875H19.125V10.125Z" fill="#EB004B"/>
</g>
<defs>
<clipPath id="clip0_349_5">
<rect width="36" height="36" fill="white"/>
</clipPath>
</defs>
</svg>
