<svg width="36" height="36" viewBox="0 0 36 36" fill="none" xmlns="http://www.w3.org/2000/svg">
<path d="M9 1.66992C13.9725 1.66992 18 5.61867 18 10.4899C18 5.61867 22.0275 1.66992 27 1.66992C31.9725 1.66992 36 5.61867 36 10.4899C36 17.8317 28.7235 20.4214 18.882 32.1079C18.7737 32.2363 18.6386 32.3394 18.4863 32.4102C18.3339 32.481 18.168 32.5176 18 32.5176C17.832 32.5176 17.6661 32.481 17.5137 32.4102C17.3614 32.3394 17.2264 32.2363 17.118 32.1079C7.2765 20.4214 0 17.8317 0 10.4899C0 5.61867 4.0275 1.66992 9 1.66992Z" fill="#EB004B"/>
</svg>
